<?xml version="1.0" standalone="no"?>
<!DOCTYPE svg PUBLIC "-//W3C//DTD SVG 20010904//EN"
 "http://www.w3.org/TR/2001/REC-SVG-20010904/DTD/svg10.dtd">
<svg version="1.0" xmlns="http://www.w3.org/2000/svg"
 width="512.000000pt" height="512.000000pt" viewBox="0 0 512.000000 512.000000"
 preserveAspectRatio="xMidYMid meet">
<metadata>
Created by potrace 1.14, written by Peter Selinger 2001-2017
</metadata>
<g transform="translate(0.000000,512.000000) scale(0.100000,-0.100000)"
fill="#000000" stroke="none">
<path d="M105 3906 c-43 -19 -83 -63 -96 -105 -7 -24 -9 -221 -7 -596 l3 -560
26 -55 c15 -30 44 -78 65 -107 22 -28 46 -61 54 -73 8 -12 25 -34 38 -48 13
-15 30 -40 38 -56 16 -29 15 -35 -16 -111 -42 -104 -48 -311 -11 -440 37 -132
110 -253 212 -354 l41 -40 -200 -3 c-197 -3 -201 -3 -227 -28 -26 -24 -29 -55
-10 -102 15 -37 46 -39 561 -35 274 2 508 6 519 9 125 37 204 72 277 124 l48
34 639 0 c694 1 691 0 809 57 56 27 59 28 268 28 l211 1 49 -43 48 -43 -157 0
c-150 0 -157 -1 -183 -24 -39 -33 -39 -89 0 -122 l28 -24 441 0 c352 1 455 4
507 16 108 24 223 75 296 131 31 23 34 23 289 23 298 0 319 4 386 70 45 45 69
102 69 163 0 69 -58 159 -124 194 -29 15 -242 62 -283 63 -22 0 -23 3 -23 100
0 141 -21 233 -81 354 -194 390 -690 537 -1068 317 -58 -34 -161 -114 -169
-132 -2 -5 -257 55 -532 126 -36 9 -97 19 -136 22 l-72 6 -11 38 c-42 139
-176 257 -328 290 -58 12 -152 7 -196 -10 -16 -6 -33 -11 -38 -11 -5 0 -9 80
-9 193 0 211 -6 247 -47 292 -44 48 -81 58 -206 57 -108 -1 -121 -3 -352 -70
-132 -38 -242 -68 -245 -65 -3 2 -5 100 -6 216 -1 240 -7 265 -70 313 l-37 29
-476 2 c-381 2 -482 0 -506 -11z"/>
</g>
</svg>
